<?xml version="1.0" standalone="no"?><!DOCTYPE svg PUBLIC "-//W3C//DTD SVG 1.1//EN" "http://www.w3.org/Graphics/SVG/1.1/DTD/svg11.dtd"><svg t="1726813775196" class="icon" viewBox="0 0 1024 1024" version="1.1" xmlns="http://www.w3.org/2000/svg" p-id="16499" width="32" height="32" xmlns:xlink="http://www.w3.org/1999/xlink"><path d="M760.533 183.893s-56.107 74.24-68.16 117.333c-12.053 43.093-57.173 53.12-80.213 76.16-23.04 23.04-241.707 50.133-305.813 402.133 0 0 0 49.173-60.16 63.147-60.16 14.08-128.427 30.507-140.373 15.04-11.093-14.293 76.16-47.147 76.16-47.147s43.093-28.053 43.093-39.147c0-10.987-79.253 20.053-79.253 20.053S-8.639 843.625 44.587 899.838c53.12 56.107 249.707 0 286.827-16 37.12-16 91.2-24.107 116.373-2.027 25.067 22.08 42.133 32.107 128.32 27.093 86.187-5.013 158.4-5.013 158.4-5.013s33.067-32.107-28.053-47.147l-56.107-4.053s-46.08 0.96-9.067-48.107c37.12-49.173 35.093-81.173 35.093-81.173s23.04-0.96 31.04 37.12 20.053 114.347 85.227 120.32c0 0 14.08 46.08 86.187 21.013 0 0 37.12-20.053-9.067-42.133l-17.067-2.987s-72.213-135.36-69.227-175.467c0 0-8-32.107 19.093-55.147s99.307-113.28 57.173-275.733c0 0-9.067-20.053 52.16-27.093 61.12-7.04 69.227-39.147 77.227-78.187 0 0-2.987-13.013-17.067-24.107l-13.013-15.147s-18.027-61.12-101.227-55.147l-7.04-9.067-10.027-43.093s-23.04 5.973-24.107 31.04l-16-20.053c0 0.107-37.12 18.133-40.107 74.347z" p-id="16500" fill="#d81e06"></path></svg>