<?xml version="1.0" standalone="no"?><!DOCTYPE svg PUBLIC "-//W3C//DTD SVG 1.1//EN" "http://www.w3.org/Graphics/SVG/1.1/DTD/svg11.dtd"><svg t="1725850923610" class="icon" viewBox="0 0 1024 1024" version="1.1" xmlns="http://www.w3.org/2000/svg" p-id="83815" xmlns:xlink="http://www.w3.org/1999/xlink" width="200" height="200"><path d="M829.952 131.072H194.56c-50.688 0-87.04 38.912-87.04 92.672v466.432c0 52.224 34.816 87.04 87.04 87.04h186.368l111.616 108.032c6.144 6.144 13.824 9.216 21.504 9.216 8.192 0 15.872-3.072 22.016-9.216l109.568-108.032h184.832c52.224 0 87.04-34.816 87.04-87.04v-465.92c-1.024-53.76-37.376-93.184-87.552-93.184zM325.632 505.856c-30.208 0-54.784-24.576-54.784-54.784 0-30.208 24.576-54.784 54.784-54.784 30.208 0 54.784 24.576 54.784 54.784 0 30.208-24.576 54.784-54.784 54.784z m195.072-0.512C490.496 505.856 465.92 481.28 465.92 451.072c0-30.208 24.576-54.784 54.272-54.784 30.208 0 54.784 24.576 54.784 54.784 0 29.696-24.064 54.272-54.272 54.272z m194.048 0c-30.208 0-54.784-24.576-54.784-54.784s24.576-54.784 54.784-54.784c30.208 0 54.784 24.576 54.784 54.784s-24.576 54.784-54.784 54.784z" p-id="83816" fill="#2c2c2c"></path></svg>