<?xml version="1.0" standalone="no"?><!DOCTYPE svg PUBLIC "-//W3C//DTD SVG 1.1//EN" "http://www.w3.org/Graphics/SVG/1.1/DTD/svg11.dtd"><svg t="1725849765660" class="icon" viewBox="0 0 1024 1024" version="1.1" xmlns="http://www.w3.org/2000/svg" p-id="8620" xmlns:xlink="http://www.w3.org/1999/xlink" width="200" height="200"><path d="M837.818182 23.272727H186.181818C83.781818 23.272727 0 107.054545 0 207.127273v525.963636c0 102.4 83.781818 183.854545 186.181818 183.854546h158.254546l90.763636 58.181818c23.272727 13.963636 48.872727 23.272727 76.8 23.272727s53.527273-6.981818 76.8-23.272727l90.763636-58.181818H837.818182c102.4 0 186.181818-83.781818 186.181818-183.854546V207.127273C1024 107.054545 940.218182 23.272727 837.818182 23.272727z m93.090909 709.818182c0 51.2-41.890909 90.763636-93.090909 90.763636h-172.218182c-9.309091 0-18.618182 2.327273-25.6 6.981819l-102.4 67.490909c-6.981818 6.981818-16.290909 9.309091-25.6 9.309091s-18.618182-2.327273-25.6-6.981819l-102.4-67.490909c-6.981818-4.654545-16.290909-6.981818-25.6-6.981818H186.181818c-51.2 0-93.090909-41.890909-93.090909-90.763636V207.127273C93.090909 158.254545 134.981818 116.363636 186.181818 116.363636h651.636364c51.2 0 93.090909 41.890909 93.090909 90.763637v525.963636z" fill="#2c2c2c" p-id="8621"></path><path d="M512 477.090909m-69.818182 0a69.818182 69.818182 0 1 0 139.636364 0 69.818182 69.818182 0 1 0-139.636364 0Z" fill="#2c2c2c" p-id="8622"></path><path d="M279.272727 477.090909m-69.818182 0a69.818182 69.818182 0 1 0 139.636364 0 69.818182 69.818182 0 1 0-139.636364 0Z" fill="#2c2c2c" p-id="8623"></path><path d="M744.727273 477.090909m-69.818182 0a69.818182 69.818182 0 1 0 139.636364 0 69.818182 69.818182 0 1 0-139.636364 0Z" fill="#2c2c2c" p-id="8624"></path></svg>