<?xml version="1.0" standalone="no"?><!DOCTYPE svg PUBLIC "-//W3C//DTD SVG 1.1//EN" "http://www.w3.org/Graphics/SVG/1.1/DTD/svg11.dtd"><svg t="1725850421306" class="icon" viewBox="0 0 1024 1024" version="1.1" xmlns="http://www.w3.org/2000/svg" p-id="60691" xmlns:xlink="http://www.w3.org/1999/xlink" width="200" height="200"><path d="M512 23.272727a325.818182 325.818182 0 0 1 167.098182 605.556364c185.064727 54.458182 317.905455 196.887273 321.536 364.869818l0.093091 7.028364H23.272727c0-171.008 134.004364-316.648727 321.629091-371.898182A325.818182 325.818182 0 0 1 512 23.272727z m0 651.636364c-200.750545 0-365.149091 109.847273-408.017455 252.276364l-1.070545 3.723636h818.176l-1.117091-3.956364c-42.356364-140.427636-202.938182-248.971636-399.546182-251.997091L512 674.909091zM512 93.090909a256 256 0 1 0 0 512 256 256 0 0 0 0-512z" fill="#262A30" p-id="60692"></path><path d="M588.474182 460.334545a34.909091 34.909091 0 1 1 33.233454 61.393455c-28.811636 15.546182-65.349818 22.900364-109.568 22.900364-44.218182 0-80.849455-7.354182-109.754181-22.853819a34.909091 34.909091 0 1 1 33.047272-61.53309c17.547636 9.448727 43.101091 14.568727 76.706909 14.568727 33.512727 0 58.973091-5.12 76.334546-14.522182z" fill="#0FC576" p-id="60693"></path></svg>