<?xml version="1.0" standalone="no"?><!DOCTYPE svg PUBLIC "-//W3C//DTD SVG 1.1//EN" "http://www.w3.org/Graphics/SVG/1.1/DTD/svg11.dtd"><svg t="1725850760510" class="icon" viewBox="0 0 1024 1024" version="1.1" xmlns="http://www.w3.org/2000/svg" p-id="74797" xmlns:xlink="http://www.w3.org/1999/xlink" width="200" height="200"><path d="M836.39873016 211.36965079c-148.56126984-285.1687619-283.46107937-90.50311111-283.46107937-90.50311111-15.36914286 25.61422222-36.01473016 1.70768254-36.01473016 1.70768254-51.36355556-68.30425397-116.43936508-66.59657143-116.43936508-66.59657143C261.67161904 54.26996825 237.03060317 199.41587302 237.03060317 199.41587302 60.89244444 204.53892063 61.14844444 415.44431746 61.14844444 415.44431746 45.77930158 544.38603175 124.32965079 648.73650794 124.32965079 648.73650794c93.91746032 336.61968254 392.59428571 315.68355556 392.59428571 315.68355555 351.62920635-25.61422222 374.1175873-304.80660317 374.11758731-304.80660317 76.84266667-108.43326984 81.96469841-226.25625397 81.96469841-226.25625397C961.05244444 231.85980952 836.39873016 211.36965079 836.39873016 211.36965079z m-176.32711112-76.43225396c41.73307937 0 75.56063492 45.13219048 75.56063492 100.81523809 0 55.66984127-33.82755556 100.81828571-75.56063492 100.81828571-41.73307937 0-75.56165079-45.14844444-75.56165079-100.81726984 0-55.68406349 33.8295873-100.8152381 75.56063492-100.81523809z m-257.86412698 0c41.73409524 0 75.56266667 45.13219048 75.56266667 100.81523809 0 55.66984127-33.82857143 100.81828571-75.56266667 100.81828571-41.71580952 0-75.54336508-45.14844444-75.54336508-100.81726984-0.00101587-55.68406349 33.82857143-100.8152381 75.54336508-100.81523809zM218.624 500.48304762c-41.73409524 0-75.56165079-45.1311746-75.5616508-100.8152381 0-55.68507937 33.82755556-100.81726984 75.56063492-100.81726984 41.73409524 0 75.56266667 45.13320635 75.56266667 100.81726984 0 55.68406349-33.82857143 100.8152381-75.56165079 100.8152381z m513.64571428 330.18107936c-39.85574603 24.16253968-93.11492063 16.13612698-142.90996825-15.96546031-31.00952381-13.57612698-82.49396825-27.38996825-135.68507937-3.77295238-9.80114286 6.69257143-19.7384127 12.48203175-29.71123809 17.26171428-42.41777778 20.35403175-85.38006349 22.77892063-118.88457143 2.47669841-67.15936508-40.72634921-70.88152381-157.37092063-8.31593651-260.544 16.42666667-27.08520635 35.77295238-50.54577778 56.62476191-69.68888888l0.18692063-0.1696508 0.05180953-0.07009524 0.08533333-0.04977777 0.05079365-0.05079366c31.23301587-28.58463492 65.76050794-47.48901587 98.68190476-54.31873015 41.42730159-12.70450794 92.94526984-17.07580952 148.93714286 4.37130158 50.18615873 16.20622222 102.16634921 58.87695238 139.20507936 119.9776508 62.56457143 103.17206349 58.84139683 219.81663492-8.31796825 260.54298412z m96.85536508-330.23187301c-41.7168254 0-75.56165079-45.13219048-75.56165079-100.81726984 0-55.68406349 33.8448254-100.8152381 75.56063492-100.8152381 41.73409524 0 75.56266667 45.1311746 75.56266667 100.8152381-0.00101587 55.68507937-33.82857143 100.81726984-75.5616508 100.81726984z" p-id="74798" fill="#2c2c2c"></path></svg>