<?xml version="1.0" standalone="no"?><!DOCTYPE svg PUBLIC "-//W3C//DTD SVG 1.1//EN" "http://www.w3.org/Graphics/SVG/1.1/DTD/svg11.dtd"><svg t="1730280991039" class="icon" viewBox="0 0 1242 1024" version="1.1" xmlns="http://www.w3.org/2000/svg" p-id="7724" width="58.21875" height="48" xmlns:xlink="http://www.w3.org/1999/xlink"><path d="M469.244119 143.924726c61.089388 0 118.632514 45.432305 136.832201 113.145844 21.210664 79.355985-20.073183 159.381077-91.600627 178.584422a121.175118 121.175118 0 0 1-31.849451 4.215369C421.536853 439.870361 363.993727 394.772608 345.860951 326.791427 324.583377 247.569263 365.599582 167.276529 437.461579 148.140094a127.130162 127.130162 0 0 1 31.78254-4.215368m332.278097 5.152117a121.509671 121.509671 0 0 1 31.849452 4.215368c71.861997 19.203346 112.811291 99.228437 91.533716 178.584423-18.132776 67.713539-75.675902 113.145844-136.76529 113.145844a124.386827 124.386827 0 0 1-31.849451-4.215369C684.495557 421.536853 643.479352 341.578672 664.756926 262.155776c18.132776-67.646628 75.675902-113.078934 136.76529-113.078933m199.326712 263.427078A115.420805 115.420805 0 0 1 1102.619969 468.374281c32.518557 56.271824 8.430737 131.010978-53.52849 167.276529a139.776268 139.776268 0 0 1-69.720857 19.002614 115.487716 115.487716 0 0 1-101.77104-55.870361c-32.451647-56.338735-8.363826-131.077888 53.528489-167.276529a139.776268 139.776268 0 0 1 69.720857-19.002613m-732.537375 0a139.374804 139.374804 0 0 1 69.653946 19.002613c62.226869 35.864088 86.314689 110.603241 53.528489 167.276529a115.420805 115.420805 0 0 1-101.77104 55.870361A139.374804 139.374804 0 0 1 220.336644 635.65081c-62.226869-35.930998-86.314689-110.670152-53.528489-167.276529a115.420805 115.420805 0 0 1 101.503398-55.87036m370.149503 51.989545c120.439101 0 300.227914 275.604809 240.878202 347.93518-30.176686 36.733926-138.036592 56.138003-245.093571 56.138003-103.309984 0-205.817041-18.065865-237.064297-56.138003-63.565081-77.415578 120.439101-347.93518 240.878202-347.93518M469.31103 50.249869c-6.691061 0-13.382122 0-20.073184 0.869838a220.002091 220.002091 0 0 0-175.841087 121.041297 247.569263 247.569263 0 0 0-24.355463 147.203345A209.630946 209.630946 0 0 0 122.58024 374.699425a143.188709 143.188709 0 0 0-26.764244 30.578149L85.37794 421.536853C27.165708 522.504966 66.910612 654.787245 173.499216 716.411918a233.04966 233.04966 0 0 0 116.491375 31.581809h1.605854c-5.821223 58.613696 12.512284 98.224778 33.455306 123.65081 61.357031 74.672243 202.136958 90.329326 309.461579 90.329326 90.864611 0 252.922112-11.776268 317.423941-90.329326 20.541558-25.024569 38.33978-64.368008 31.514898-123.71772a233.384213 233.384213 0 0 0 112.276007-31.514899 229.570308 229.570308 0 0 0 104.648196-128.200731 204.144276 204.144276 0 0 0-177.982227-268.378464 247.569263 247.569263 0 0 0-24.957658-142.519602 220.002091 220.002091 0 0 0-175.439623-121.041297 184.87402 184.87402 0 0 0-20.073184-0.869838 229.503398 229.503398 0 0 0-164.06482 70.456874 230.239415 230.239415 0 0 0-168.54783-75.608991z" p-id="7725" fill="#2c2c2c"></path></svg>