<?xml version="1.0" standalone="no"?><!DOCTYPE svg PUBLIC "-//W3C//DTD SVG 1.1//EN" "http://www.w3.org/Graphics/SVG/1.1/DTD/svg11.dtd"><svg t="1726813333698" class="icon" viewBox="0 0 1024 1024" version="1.1" xmlns="http://www.w3.org/2000/svg" p-id="10229" xmlns:xlink="http://www.w3.org/1999/xlink" width="12" height="12"><path d="M512 299.475507a40.374728 40.374728 0 1 1 0 80.749456A139.090938 139.090938 0 1 0 651.090938 519.315901a40.374728 40.374728 0 1 1 80.749456 0A219.840394 219.840394 0 1 1 512 299.475507z m138.788127-207.425165a45.421569 45.421569 0 1 1-28.060436 86.35145 358.325711 358.325711 0 1 0 224.988172 215.348705 45.421569 45.421569 0 1 1 85.089739-31.795098 449.168848 449.168848 0 1 1-282.017475-269.905057z m254.86547-11.203987l79.184936 24.729521a20.187364 20.187364 0 0 1 8.22635 33.561493L858.717976 273.534744l-75.954957 10.446961-162.155001 174.469293a38.053181 38.053181 0 0 1-56.17134-0.454215 46.683279 46.683279 0 0 1-0.353279-62.076145l149.336025-169.321515V140.449547l125.313062-134.094565a20.187364 20.187364 0 0 1 32.854935 4.895436l34.167113 69.646406z" fill="#d81e06" p-id="10230"></path></svg>